<svg width="512" height="512" viewBox="0 0 512 512" fill="none" xmlns="http://www.w3.org/2000/svg">
    <rect width="512" height="512" rx="90" fill="#111827"/>
    <path d="M160 80H352L400 128V432C400 440.837 392.837 448 384 448H128C119.163 448 112 440.837 112 432V96C112 87.1632 119.163 80 128 80H160Z" fill="#2D3748"/>
    <path d="M352 80L400 128H368C359.163 128 352 120.837 352 112V80Z" fill="#4A5568"/>
    <path d="M256 368C284.284 368 307 345.284 307 317C307 288.716 284.284 266 256 266C227.716 266 205 288.716 205 317C205 345.284 227.716 368 256 368Z" stroke="#38A169" stroke-width="24" stroke-linecap="round" stroke-linejoin="round"/>
    <path d="M256 242V290" stroke="#38A169" stroke-width="24" stroke-linecap="round" stroke-linejoin="round"/>
    <path d="M256 344V392" stroke="#38A169" stroke-width="24" stroke-linecap="round" stroke-linejoin="round"/>
</svg>
